<svg width="300" height="300" viewBox="0 0 300 300" fill="none" xmlns="http://www.w3.org/2000/svg">
<path fill-rule="evenodd" clip-rule="evenodd" d="M9.37522 112.5C7.97241 112.501 6.5876 112.816 5.32287 113.423C4.05814 114.03 2.94574 114.913 2.06766 116.007C1.18957 117.101 0.568192 118.378 0.249319 119.744C-0.0695532 121.11 -0.0777891 122.53 0.225219 123.9L31.2002 263.287C33.5123 273.698 39.3053 283.01 47.623 289.684C55.9406 296.359 66.2856 299.998 76.9502 300H185.55C196.215 299.998 206.56 296.359 214.877 289.684C223.195 283.01 228.988 273.698 231.3 263.287L233.756 252.225C248.099 254.908 262.922 251.912 275.098 243.871C287.273 235.83 295.847 223.372 299.01 209.128C302.173 194.884 299.678 179.968 292.051 167.53C284.423 155.091 272.261 146.103 258.131 142.463L262.275 123.9C262.578 122.53 262.57 121.11 262.251 119.744C261.932 118.378 261.311 117.101 260.433 116.007C259.555 114.913 258.442 114.03 257.178 113.423C255.913 112.816 254.528 112.501 253.125 112.5H9.37522ZM243.75 234.375C241.766 234.375 239.785 234.218 237.825 233.906L254.081 160.819C262.753 163.33 270.229 168.885 275.136 176.463C280.043 184.041 282.054 193.134 280.798 202.075C279.542 211.015 275.105 219.203 268.3 225.136C261.495 231.069 252.778 234.349 243.75 234.375Z" fill="rgb(195, 145, 125)"/>
<path d="M82.5 15.0004L82.4437 15.0754L82.1812 15.4316C80.8206 17.3113 79.5443 19.2508 78.3562 21.2441C77.3675 22.8539 76.4844 24.5261 75.7125 26.2504C75.225 27.3754 75.075 27.9754 75.0187 28.1816V28.2566C75.2306 29.9152 75.8138 31.5046 76.725 32.9066C78.1313 35.4004 80.0625 38.0066 82.5 41.2504L82.6875 41.4754C84.9 44.4379 87.5625 47.9816 89.625 51.6566C91.725 55.4066 93.75 60.1879 93.75 65.6254C93.75 69.1504 92.5313 72.5254 91.5188 74.8879C90.418 77.3937 89.1528 79.824 87.7312 82.1629C86.2512 84.6159 84.6686 87.0055 82.9875 89.3254L82.65 89.7941L82.5562 89.9441L82.5188 89.9816C81.0294 91.9732 78.8099 93.2916 76.3485 93.6468C73.887 94.0019 71.3854 93.3647 69.3937 91.8754C67.4021 90.386 66.0837 88.1665 65.7286 85.7051C65.3735 83.2436 66.0106 80.742 67.5 78.7504L67.5562 78.6754L67.8188 78.3191C69.1798 76.4396 70.4561 74.5002 71.6438 72.5066C72.6463 70.9048 73.5299 69.2315 74.2875 67.5004C74.775 66.3754 74.925 65.7754 74.9813 65.5691C74.7861 63.8861 74.2089 62.27 73.2937 60.8441C71.5384 57.9448 69.6034 55.1581 67.5 52.5004L67.3125 52.2754C64.7835 49.0343 62.4662 45.6335 60.375 42.0941C57.8212 37.8703 56.4004 33.0589 56.25 28.1254C56.25 24.6004 57.4687 21.2254 58.4812 18.8629C59.5875 16.2754 60.9938 13.7254 62.2688 11.5879C63.7488 9.13487 65.3315 6.74526 67.0125 4.42536L67.4812 3.76911C68.9706 1.7775 71.1901 0.459106 73.6515 0.103959C76.113 -0.251188 78.6146 0.386004 80.6062 1.87536C82.5979 3.36472 83.9163 5.58424 84.2714 8.04565C84.6266 10.5071 83.9894 13.0088 82.5 15.0004V15.0004ZM138.75 15.0004L138.694 15.0754L138.431 15.4316C137.071 17.3113 135.794 19.2508 134.606 21.2441C133.618 22.8539 132.734 24.5261 131.963 26.2504C131.475 27.3754 131.325 27.9754 131.269 28.1816V28.2566C131.481 29.9152 132.064 31.5046 132.975 32.9066C134.381 35.4004 136.313 38.0066 138.75 41.2504L138.937 41.4754C141.15 44.4379 143.813 47.9816 145.875 51.6566C147.975 55.4066 150 60.1879 150 65.6254C150 69.1504 148.781 72.5254 147.769 74.8879C146.668 77.3937 145.403 79.824 143.981 82.1629C142.501 84.6159 140.919 87.0055 139.238 89.3254L138.9 89.7941L138.806 89.9441L138.769 89.9816C137.279 91.9732 135.06 93.2916 132.598 93.6468C130.137 94.0019 127.635 93.3647 125.644 91.8754C123.652 90.386 122.334 88.1665 121.979 85.7051C121.623 83.2436 122.261 80.742 123.75 78.7504L123.806 78.6754L124.069 78.3191C125.43 76.4396 126.706 74.5002 127.894 72.5066C128.896 70.9048 129.78 69.2315 130.537 67.5004C131.025 66.3754 131.175 65.7754 131.231 65.5691C131.036 63.8861 130.459 62.27 129.544 60.8441C127.788 57.9448 125.853 55.1581 123.75 52.5004L123.563 52.2754C121.034 49.0343 118.716 45.6335 116.625 42.0941C114.071 37.8703 112.65 33.0589 112.5 28.1254C112.5 24.6004 113.719 21.2254 114.731 18.8629C115.837 16.2754 117.244 13.7254 118.519 11.5879C119.999 9.13487 121.581 6.74526 123.262 4.42536L123.731 3.76911C125.221 1.7775 127.44 0.459106 129.902 0.103959C132.363 -0.251188 134.865 0.386004 136.856 1.87536C138.848 3.36472 140.166 5.58424 140.521 8.04565C140.877 10.5071 140.239 13.0088 138.75 15.0004V15.0004ZM195 15.0004L194.944 15.0754L194.681 15.4316C193.319 17.31 192.042 19.2496 190.856 21.2441C189.868 22.8541 188.985 24.5264 188.213 26.2504C187.725 27.3754 187.575 27.9754 187.519 28.1816V28.2566C187.731 29.9152 188.314 31.5046 189.225 32.9066C190.631 35.4004 192.562 38.0066 195 41.2504L195.187 41.4754C197.4 44.4379 200.062 47.9816 202.125 51.6566C204.225 55.4066 206.25 60.1879 206.25 65.6254C206.25 69.1504 205.031 72.5254 204.019 74.8879C202.924 77.3965 201.658 79.8271 200.231 82.1629C198.758 84.6162 197.182 87.0059 195.506 89.3254L195.15 89.7941L195.056 89.9441L195.019 89.9816C193.529 91.9732 191.31 93.2916 188.848 93.6468C186.387 94.0019 183.885 93.3647 181.894 91.8754C179.902 90.386 178.584 88.1665 178.229 85.7051C177.873 83.2436 178.511 80.742 180 78.7504L180.056 78.6754L180.319 78.3191C181.68 76.4396 182.956 74.5002 184.144 72.5066C185.146 70.9048 186.03 69.2315 186.787 67.5004C187.275 66.3754 187.425 65.7754 187.481 65.5691C187.286 63.8861 186.709 62.27 185.794 60.8441C184.038 57.9448 182.103 55.1581 180 52.5004L179.813 52.2754C177.284 49.0343 174.966 45.6335 172.875 42.0941C170.321 37.8703 168.9 33.0589 168.75 28.1254C168.75 24.6004 169.969 21.2254 170.981 18.8629C172.088 16.2754 173.494 13.7254 174.769 11.5879C176.249 9.13487 177.831 6.74526 179.513 4.42536L179.981 3.76911C181.471 1.7775 183.69 0.459106 186.152 0.103959C188.613 -0.251188 191.115 0.386004 193.106 1.87536C195.098 3.36472 196.416 5.58424 196.771 8.04565C197.127 10.5071 196.489 13.0088 195 15.0004V15.0004Z" fill="rgb(195, 145, 125)"/>
</svg>
