<svg width="337" height="300" viewBox="0 0 337 300" fill="none" xmlns="http://www.w3.org/2000/svg">
<path d="M50.5 0H303C311.929 0 320.492 3.51189 326.806 9.76311C333.12 16.0143 336.667 24.4928 336.667 33.3333V83.3333C336.667 92.1739 333.12 100.652 326.806 106.904C320.492 113.155 311.929 116.667 303 116.667H269.333V166.667C269.333 184.348 262.239 201.305 249.612 213.807C236.984 226.31 219.858 233.333 202 233.333H101C83.1421 233.333 66.0156 226.31 53.3881 213.807C40.7607 201.305 33.6667 184.348 33.6667 166.667V16.6667C33.6667 12.2464 35.4402 8.00716 38.597 4.88155C41.7539 1.75595 46.0355 0 50.5 0ZM269.333 33.3333V83.3333H303V33.3333H269.333ZM0 266.667H303V300H0V266.667Z" fill="rgb(195, 145, 125)"/>
</svg>
